<svg width="24" height="22" viewBox="0 0 24 22" fill="none" xmlns="http://www.w3.org/2000/svg">
<mask id="path-1-inside-1_3128_31138" fill="white">
<path d="M0 6C0 2.68629 2.68629 0 6 0H18C21.3137 0 24 2.68629 24 6V16C24 19.3137 21.3137 22 18 22H6C2.68629 22 0 19.3137 0 16V6Z"/>
</mask>
<path d="M0 6C0 2.68629 2.68629 0 6 0H18C21.3137 0 24 2.68629 24 6V16C24 19.3137 21.3137 22 18 22H6C2.68629 22 0 19.3137 0 16V6Z" fill="white"/>
<path d="M6 0V0.8H18V0V-0.8H6V0ZM24 6H23.2V16H24H24.8V6H24ZM18 22V21.2H6V22V22.8H18V22ZM0 16H0.8V6H0H-0.8V16H0ZM6 22V21.2C3.12812 21.2 0.8 18.8719 0.8 16H0H-0.8C-0.8 19.7555 2.24446 22.8 6 22.8V22ZM24 16H23.2C23.2 18.8719 20.8719 21.2 18 21.2V22V22.8C21.7555 22.8 24.8 19.7555 24.8 16H24ZM18 0V0.8C20.8719 0.8 23.2 3.12812 23.2 6H24H24.8C24.8 2.24446 21.7555 -0.8 18 -0.8V0ZM6 0V-0.8C2.24446 -0.8 -0.8 2.24446 -0.8 6H0H0.8C0.8 3.12812 3.12812 0.8 6 0.8V0Z" fill="#C0C0C0" mask="url(#path-1-inside-1_3128_31138)"/>
<path d="M6.14645 5.14645C6.34171 4.95118 6.65822 4.95118 6.85348 5.14645L17.8535 16.1464C18.0487 16.3417 18.0487 16.6582 17.8535 16.8535C17.6582 17.0487 17.3417 17.0487 17.1464 16.8535L14.914 14.6211C14.053 15.1755 13.0528 15.4822 12.0234 15.5019C10.5363 15.6106 9.22461 14.8691 8.22457 13.9824C7.21596 13.088 6.45635 11.9876 6.05856 11.2363C5.98307 11.0937 5.98067 10.9236 6.0527 10.7793C6.30549 10.2737 7.05893 9.11793 8.27438 7.98141L6.14645 5.85348C5.95118 5.65822 5.95118 5.34171 6.14645 5.14645ZM8.98238 8.68942C8.01148 9.59195 7.36658 10.5009 7.07125 11.0009C7.44961 11.6525 8.08414 12.5218 8.88766 13.2343C9.79671 14.0404 10.8553 14.589 11.9619 14.5039C11.9718 14.5031 11.9822 14.5031 11.9921 14.5029C12.7665 14.4902 13.5194 14.2758 14.1845 13.8916L13.0254 12.7324C12.5675 13.0199 12.0058 13.1149 11.4677 12.9775C10.7592 12.7966 10.2054 12.2436 10.0244 11.5351C9.88691 10.9968 9.98084 10.4335 10.2685 9.97555L8.98238 8.68942ZM11.9912 6.50289C13.469 6.45185 14.7738 7.19772 15.7734 8.07613C16.7802 8.96085 17.54 10.0331 17.9384 10.7627C18.0235 10.9184 18.0199 11.1076 17.9287 11.2597C17.7975 11.4784 17.5667 11.8364 17.3447 12.164C17.2334 12.3282 17.1223 12.4885 17.0244 12.622C16.9335 12.746 16.8347 12.8752 16.7539 12.956C16.5587 13.1512 16.2421 13.151 16.0468 12.956C15.8516 12.7608 15.8516 12.4442 16.0468 12.249C16.0662 12.2296 16.1231 12.1604 16.2177 12.0312C16.3057 11.9112 16.4101 11.762 16.5175 11.6035C16.6591 11.3944 16.8025 11.1751 16.9179 10.9931C16.5383 10.3635 15.9085 9.52596 15.1132 8.82711C14.2026 8.02695 13.1364 7.46068 12.0185 7.50192C12.012 7.50215 12.0055 7.5029 11.999 7.50289C11.6843 7.50215 11.3699 7.53761 11.0634 7.60934C10.7947 7.67197 10.5258 7.50501 10.4629 7.23629C10.4 6.96751 10.5672 6.69868 10.8359 6.6357C11.2146 6.54707 11.6023 6.50274 11.9912 6.50289ZM11.0156 10.7226C10.9555 10.9019 10.9456 11.0973 10.9941 11.2871C11.0846 11.6413 11.3606 11.9182 11.7148 12.0088C11.9043 12.0572 12.0992 12.0451 12.2783 11.9853L11.0156 10.7226Z" fill="#C7C7C7"/>
</svg>
