<svg width="34" height="34" viewBox="0 0 33 32" fill="none"  xmlns="http://www.w3.org/2000/svg">
<g filter="url(#filter0_d_3325_35020)">
<path d="M2.03955 15C2.03955 7.26801 8.30756 1 16.0396 1C23.7715 1 30.0396 7.26801 30.0396 15C30.0396 22.732 23.7715 29 16.0396 29C8.30756 29 2.03955 22.732 2.03955 15Z" fill="#00C874"/>
<path d="M24.0702 9.21938L20.3202 5.46938C20.2505 5.39975 20.1677 5.34454 20.0767 5.3069C19.9856 5.26926 19.8881 5.24992 19.7896 5.25H12.2896C11.8917 5.25 11.5102 5.40804 11.2289 5.68934C10.9476 5.97064 10.7896 6.35218 10.7896 6.75V8.25H9.28955C8.89173 8.25 8.5102 8.40804 8.22889 8.68934C7.94759 8.97064 7.78955 9.35218 7.78955 9.75V23.25C7.78955 23.6478 7.94759 24.0294 8.22889 24.3107C8.5102 24.592 8.89173 24.75 9.28955 24.75H19.7896C20.1874 24.75 20.5689 24.592 20.8502 24.3107C21.1315 24.0294 21.2896 23.6478 21.2896 23.25V21.75H22.7896C23.1874 21.75 23.5689 21.592 23.8502 21.3107C24.1315 21.0294 24.2896 20.6478 24.2896 20.25V9.75C24.2896 9.65148 24.2703 9.55391 24.2327 9.46286C24.195 9.37182 24.1398 9.28908 24.0702 9.21938ZM19.7896 23.25H9.28955V9.75H16.4792L19.7896 13.0603V20.985C19.7896 20.9906 19.7896 20.9953 19.7896 21C19.7896 21.0047 19.7896 21.0094 19.7896 21.015V23.25ZM22.7896 20.25H21.2896V12.75C21.2896 12.6515 21.2703 12.5539 21.2327 12.4629C21.195 12.3718 21.1398 12.2891 21.0702 12.2194L17.3202 8.46938C17.2505 8.39975 17.1677 8.34454 17.0767 8.3069C16.9856 8.26926 16.8881 8.24992 16.7896 8.25H12.2896V6.75H19.4792L22.7896 10.0603V20.25ZM17.5396 17.25C17.5396 17.4489 17.4605 17.6397 17.3199 17.7803C17.1792 17.921 16.9885 18 16.7896 18H12.2896C12.0906 18 11.8999 17.921 11.7592 17.7803C11.6186 17.6397 11.5396 17.4489 11.5396 17.25C11.5396 17.0511 11.6186 16.8603 11.7592 16.7197C11.8999 16.579 12.0906 16.5 12.2896 16.5H16.7896C16.9885 16.5 17.1792 16.579 17.3199 16.7197C17.4605 16.8603 17.5396 17.0511 17.5396 17.25ZM17.5396 20.25C17.5396 20.4489 17.4605 20.6397 17.3199 20.7803C17.1792 20.921 16.9885 21 16.7896 21H12.2896C12.0906 21 11.8999 20.921 11.7592 20.7803C11.6186 20.6397 11.5396 20.4489 11.5396 20.25C11.5396 20.0511 11.6186 19.8603 11.7592 19.7197C11.8999 19.579 12.0906 19.5 12.2896 19.5H16.7896C16.9885 19.5 17.1792 19.579 17.3199 19.7197C17.4605 19.8603 17.5396 20.0511 17.5396 20.25Z" fill="white"/>
</g>
<defs>
<filter id="filter0_d_3325_35020" x="0.0395508" y="0" width="32" height="32" filterUnits="userSpaceOnUse" color-interpolation-filters="sRGB">
<feFlood flood-opacity="0" result="BackgroundImageFix"/>
<feColorMatrix in="SourceAlpha" type="matrix" values="0 0 0 0 0 0 0 0 0 0 0 0 0 0 0 0 0 0 127 0" result="hardAlpha"/>
<feOffset dy="1"/>
<feGaussianBlur stdDeviation="1"/>
<feComposite in2="hardAlpha" operator="out"/>
<feColorMatrix type="matrix" values="0 0 0 0 0 0 0 0 0 0 0 0 0 0 0 0 0 0 0.05 0"/>
<feBlend mode="normal" in2="BackgroundImageFix" result="effect1_dropShadow_3325_35020"/>
<feBlend mode="normal" in="SourceGraphic" in2="effect1_dropShadow_3325_35020" result="shape"/>
</filter>
</defs>
</svg>
